<svg xmlns="http://www.w3.org/2000/svg" viewBox="0 0 242.77 157.8"><title>Artboard 1</title><path d="M0,42.13V33.59C0,27.72.05,21.86,0,16A15.6,15.6,0,0,1,11.58.49a30,30,0,0,1,7.29-.62c7.83-.06,15.67,0,23.5,0,4.59,0,9.17.07,13.76.08C58,0,59.92-.14,61.82-.14c2.48,0,4.95.1,7.42.12,1.94,0,3.87-.06,5.8-.07,4.7,0,9.39,0,14.09,0,3.5,0,7-.09,10.49-.13,2.72,0,5.45-.11,8.18-.09s5.72.12,8.57.2c1.13,0,2.26.17,3.39.13,2.08-.07,4.16-.26,6.24-.34.7,0,1.41.12,2.11.12,4.37,0,8.74-.06,13.11,0,3.4,0,6.79.22,10.19.26,2.6,0,5.2-.09,7.8-.09,3.84,0,7.67.05,11.5,0,5,0,10-.13,15-.12,4.21,0,8.42.15,12.64.17,2.64,0,5.29-.09,7.94-.11,3.62,0,7.24,0,10.86,0s7-.1,10.56,0a14.3,14.3,0,0,1,8.74,3.14,17.39,17.39,0,0,1,4.8,6.05,15.4,15.4,0,0,1,1.44,6.45c.09,3.18-.05,6.36-.06,9.55,0,4.23,0,8.47,0,12.71v4.48c-2.34,0-4.73.06-7.11,0-2.22-.08-4.46.19-6.61-.31a11,11,0,0,1-1.86.28c-1.92,0-3.83-.2-5.74-.2-2.26,0-4.52.18-6.77.19s-4.61-.12-6.91-.14c-.9,0-1.81.19-2.71.19h-24.7c-8.67,0-17.34,0-26,0-.89,0-1.79-.36-2.74-.32l1.17.13v.08ZM101.29,4.66c0,2.47,0,4.82,0,7.17,0,.23-.33.64-.52.65-1,0-2.09-.11-3.13-.07-1.42.06-2.84.26-4.27.31-.2,0-.59-.46-.6-.71,0-2.46,0-4.92,0-7.33h-4.1V25h4.16V16c2.77,0,5.39,0,8,0,.17,0,.47.42.48.65.08,2,.11,4.09.12,6.13,0,.69-.11,1.39-.17,2.12h4.28V4.66Zm22,13.9a19.36,19.36,0,0,0-.29-2.64c-.28-1.09-.44-2.4-1.15-3.16-2-2.09-4.36-3.45-7.4-2.62a7.3,7.3,0,0,0-4.68,3.38A9.4,9.4,0,0,0,109,20a5.71,5.71,0,0,0,2.51,4,9,9,0,0,0,6.56,1.11,6,6,0,0,0,4.72-4.31c-2.33-.19-2.3-.16-4.2,1.21a4.33,4.33,0,0,1-4.3.3c-1.29-.51-1.58-1.8-1.85-3a1,1,0,0,1,.6-.83c2.57-.07,5.14-.07,7.71-.06C121.58,18.39,122.44,18.49,123.34,18.56Zm16.78-.92a32.09,32.09,0,0,0,1.21,4.05A5.29,5.29,0,0,0,143.17,24a8.57,8.57,0,0,0,5.46,1.23,6.83,6.83,0,0,0,4.15-1.67A7.78,7.78,0,0,0,155,16c-.83-4.49-4.05-6.24-8-6.07S140.4,13.48,140.12,17.64ZM129.78,25V4.66h-3.69V25Zm3.76-20.33V25h3.66V4.66ZM95.28,38c0-1.57,0-3,0-4.36A1.61,1.61,0,0,1,97,32c1,.06,1.41.7,1.39,1.69,0,1.39,0,2.77,0,4.2h1.43c0-1.64,0-3.2,0-4.75a1.93,1.93,0,0,0-1.68-2,3,3,0,0,0-2.84.83,7.59,7.59,0,0,0-2.46-.92,6.51,6.51,0,0,0-2.24.94c0-1.48-1.21-.41-1.51-.65v6.51l1.59.08c0-1.49,0-2.88,0-4.27A1.76,1.76,0,0,1,92.49,32c1.07.07,1.35.79,1.34,1.75,0,1.31,0,2.63,0,4Zm34.17-6.66v6.47a4.22,4.22,0,0,0,1.24,0c.11,0,.13-.64.15-1,0-1.12,0-2.26.12-3.37a1.63,1.63,0,0,1,1.83-1.5c1.05.09,1.39.86,1.37,1.86,0,1.31,0,2.62,0,4l1.28.09c0-1.43,0-2.83,0-4.23a1.73,1.73,0,0,1,1.74-1.7,1.37,1.37,0,0,1,1.48,1.6c0,1.42,0,2.84,0,4.69.63-.39,1.43-.65,1.43-.93a28.53,28.53,0,0,0-.19-4.62,2.2,2.2,0,0,0-1-1.4,2.74,2.74,0,0,0-3.35.55,8.32,8.32,0,0,0-2.45-.83,7.48,7.48,0,0,0-2.25.82C130.61,31.17,130.61,31.17,129.45,31.35Zm-8.16,2.12a9.21,9.21,0,0,0,1.76-.9,2.1,2.1,0,0,1,2.59-.29,1.3,1.3,0,0,1,.51,1c0,.25-.53.53-.86.61-.91.22-1.85.34-2.77.51a1.53,1.53,0,0,0-1.39,1.77,2.52,2.52,0,0,0,1.27,1.59,3.35,3.35,0,0,0,3.38-.29,18.65,18.65,0,0,0,1.93.52c.19,0,.43-.23.65-.36-.13-.2-.28-.38-.41-.59s-.47-.61-.49-.93c-.06-1,0-2.08,0-3.11a1.59,1.59,0,0,0-.25-1,3.68,3.68,0,0,0-3.43-.92C122.7,31.28,121.46,31.61,121.29,33.47Zm-19.62,6-.33.28c.26.25.49.66.77.7,1.27.16,2.15,0,2.61-1.18,1.07-2.63,2.13-5.26,3.22-7.95h-1.47l-1.92,5.32A37,37,0,0,1,103,32.53c-.31-1.22-.94-1.49-2.09-1.21.82,1.89,1.67,3.77,2.47,5.66C104.05,38.63,103.45,39.48,101.67,39.43Zm46.59-3.58-.25-.33a11.58,11.58,0,0,0-1.25.93,2.32,2.32,0,0,1-2.54.39,1.64,1.64,0,0,1-1.11-2h5.38a3.56,3.56,0,0,0-3.4-3.89,3.83,3.83,0,0,0-3.28,2.64c-.3,2.46.61,4.17,2.36,4.41C146.48,38.29,148,37.51,148.26,35.85Zm-35,2c.94.12,1.71.31,1.46-1.16a11.28,11.28,0,0,1,0-3.28,1.79,1.79,0,0,1,2.15-1.4c1,.14,1.21.88,1.2,1.75v4l1.46.08c0-1.59,0-3.1,0-4.62a2,2,0,0,0-1.26-2c-1.45-.72-2.57-.1-3.67,1l-.18-1.09-1.21.07Zm49.52-4.71.36-.54a7.52,7.52,0,0,0-1.24-1.1,3.47,3.47,0,0,0-3.61,0c-.46.29-1,1-1,1.37a2.39,2.39,0,0,0,1.16,1.51,21,21,0,0,0,2.59.77,2.11,2.11,0,0,1,.93.8c.08.14-.15.6-.35.77a2.8,2.8,0,0,1-3-.27,8.59,8.59,0,0,0-1.71-1,5.74,5.74,0,0,0,.07.78c.84,2.12,3.88,2.08,5.36,1.21a2.25,2.25,0,0,0,1-1.69c0-.49-.74-1.1-1.29-1.37s-1.55-.29-2.28-.57a5.56,5.56,0,0,1-1.3-1A6.68,6.68,0,0,1,160,32a2.32,2.32,0,0,1,1.22.33C161.76,32.57,162.24,32.86,162.73,33.12ZM154,38.25c.61-.31,1.43-.52,1.44-.77.1-2,.06-4.1.06-6.16H154Zm1.34-9.55c-1.57-.2-1.58-.19-1.34,1.06h1.41ZM98.11,41.77l0,.16h4.55v-.16Z" fill="#027f00"/><path d="M17.26,140.63a11.37,11.37,0,0,1,1.4-.17q18.54,0,37.07,0c3.67,0,7.35-.15,11-.16,3,0,6,.15,9,.13,5.67,0,11.33-.2,17-.21q24.28,0,48.57,0h48.1q6.49,0,13,.05c2.47,0,4.94.2,7.41.18,5.33,0,10.65-.21,16-.22,4.87,0,9.74.13,14.61.2l2.14.08c0,.73-.1,1.47-.1,2.2,0,7.76-7,15-15.11,15q-43.77,0-87.56,0l-71.59,0q-24,0-48,0c-2.62,0-5.26,0-7.87-.29A12.64,12.64,0,0,1,5.16,154a14.8,14.8,0,0,1-4.95-8.22c-.34-1.67-.42-3.4-.64-5.3H4.89c3.88,0,7.76,0,11.63,0a3.1,3.1,0,0,1,.77.19H8.43a36.29,36.29,0,0,0,6.07.27C15.42,140.91,16.34,140.73,17.26,140.63Zm12.18.27.11-.11H19.72v.11Z" fill="#027f00"/><path d="M119.18,16.22h-6.53c-.49-1,.27-1.87.9-2.58a4,4,0,0,1,4.25-.53A3.17,3.17,0,0,1,119.18,16.22Z" fill="#027f00"/><path d="M151.7,17.72a5.29,5.29,0,0,1-2.11,4.57c-1,.91-3.89.29-4.62-1.06a7,7,0,0,1-.13-6.92,3.66,3.66,0,0,1,4-1.52,3.9,3.9,0,0,1,2.62,2.82C151.54,16.31,151.61,17,151.7,17.72Z" fill="#027f00"/><path d="M126,34.45c.4,2.06-.59,2.7-2.21,2.51-.47-.06-.89-.61-1.34-.93.4-.38.73-.93,1.2-1.12A12.71,12.71,0,0,1,126,34.45Z" fill="#027f00"/><path d="M143.08,34c.24-1.28,1.08-2.09,2-2.06A2.08,2.08,0,0,1,147,34Z" fill="#027f00"/></svg>