<svg xmlns="http://www.w3.org/2000/svg" viewBox="0 0 200 200"><defs><style>.a{fill:#0d3f00;}.b{fill:#027f00;}</style></defs><title>Artboard 2</title><path class="a" d="M40.54,14.59C34.37,27,28.46,39.12,22.1,51.05c-.8,1.49-4,1.71-6.06,2.51-.73-2.12-2.53-4.55-2-6.31,3.2-10.91,6.49-21.84,10.61-32.42C27.13,8.42,31.08,8.46,40.54,14.59Z"/><path class="a" d="M150.54,165.71c5.47-12.07,10.41-22.93,15.53-34.22,3.12.93,7.66,1.37,10.9,3.66,1.71,1.21,2.61,6.62,1.37,8.44-5,7.3-11.16,13.74-16.38,20.87C157.89,170,154.84,170.33,150.54,165.71Z"/><path class="a" d="M182.62,150,200,153.74c-2.92,6.1-5.55,12.47-8.83,18.25a202.22,202.22,0,0,1-18.49,27.75c-3.5-7.13-9.12-7.9-2.87-20.11C175.84,167.83,177.9,161.46,182.62,150Z"/><path class="a" d="M1,31.23c1-8.77,1.61-15.1,2.39-21.41C3.79,6.29,15.62-.58,18.12,1.33a4,4,0,0,1,1.23,3.36c-3,9-8.35,16.61-11.83,25.4-.77,2-.93,4.54-2.61,6.1Z"/><path class="b" d="M76.14,74.76c-.48,2.31-1.83,4.45-2.78,6.67-2.25-1.5-5.37-2.5-6.59-4.6C63.4,71,56.45,58.91,55.69,59c.75,5.27,1.78,10.51,2.11,15.8.13,2.17-1.25,4.43-1.95,6.64-2-1.34-4.65-2.26-5.7-4.12-2.62-4.58-4.49-9.6-6.74-14.62-3.4,3-3.86,6.34-4.42,11.09-.15,1.28-.56,5.36-3.17,5.28,0-13.29-.61-28.21-.31-40.66.05-1.92,2.18-3.8,3.35-5.69,1.72,1.56,4.2,2.8,5,4.74,2.05,4.86,3.34,10,6.33,14.89.73-3.92,1.16-7.94,2.33-11.72.57-1.87,2.52-3.32,3.84-4.95,1.4,1.56,3.43,2.9,4.08,4.72,2.82,7.9,5.22,15.94,7.78,23.93,1.08.08,2.46,3.12,3.26.24,2.87-13.05,5.61-26.13,8.75-39.12.54-2.26,2.78-4.1,4.24-6.14,1.11,2.12,2.89,4.14,3.2,6.37,1.52,10.92,2.64,21.89,3.9,32.84l3.1.07c1.95-9.06,3.66-18.19,6-27.14.55-2.11,3.3-3.64,5-5.44.71,2.08,2,4.15,2,6.24.09,11.93-.22,23.87-.16,35.81,0,2.29,1.07,4.57,1.65,6.85l2.46.18c2.59-12.84,5.07-25.7,7.84-38.49.54-2.51,2.19-4.78,3.34-7.16,1.13,2.4,3.05,4.72,3.26,7.19,1.56,18.43,2.72,36.88,4.17,55.31.23,2.91,1.3,5.76,2.45,10.58,7.88-4.16,15.09-7.49,21.78-11.67,4.64-2.91,7.81-3.22,10.17,1.77-7,11.27-14.11,22.19-20.69,33.43-10,17-7.78,35.16-4.08,53.33.59,2.89,1.84,5.77,1.8,8.65a15.25,15.25,0,0,1-3.15,8.24c-11.82-19.39-16.1-39.57-11.68-60.38-10.53,4.92-20.87,11.56-32.18,14.6-15.31,4.11-25.09,10-47.1,7.7-23.43-4.09-21.21-15.54-12.7-29.42,10.4-16.94,21.37-25,34.05-35.69a68.58,68.58,0,0,1,6.79-4.54C90,79.28,90,79.28,86.21,62.79c-.95-4.13-2.07-8.22-3.12-12.33C82.32,47.39,77.85,66.64,76.14,74.76ZM129.34,111l-37.22,5.8c5-11.27,16.09-10.68,20.07-11.37s8-2.23,12.07-3.38c-2.48-4.67-5-9.35-7.49-14-.2-.38-1-.45-.32-.17l-9.26,7.06c-2.3-6.53-1.56-14.42-10.12-11.2-17.82,6.71-32.14,17-35.87,37.46-1.55,8.51,1.64,13.72,9.58,17,7.09,3,13.7,1.48,20.29-.42C107.68,133,120.8,127.54,129.34,111Z"/></svg>