<?xml version="1.0" encoding="utf-8"?>
<!-- Generator: Adobe Illustrator 22.1.0, SVG Export Plug-In . SVG Version: 6.00 Build 0)  -->
<svg version="1.1" id="Layer_1" xmlns="http://www.w3.org/2000/svg" xmlns:xlink="http://www.w3.org/1999/xlink" x="0px" y="0px"
	 viewBox="0 0 242.8 157.8" style="enable-background:new 0 0 242.8 157.8;" xml:space="preserve">
<style type="text/css">
	.st0{fill:#027F00;}
</style>
<path class="st0" d="M0,42.1c0-2.8,0-5.7,0-8.5c0-5.9,0-11.7,0-17.6C-0.1,8.7,4.5,2.3,11.6,0.5c2.3-0.6,4.9-0.6,7.3-0.6
	c7.8-0.1,15.7,0,23.5,0c4.6,0,9.2,0.1,13.8,0.1c1.9,0,3.8-0.1,5.7-0.1c2.5,0,4.9,0.1,7.4,0.1c1.9,0,3.9-0.1,5.8-0.1
	c4.7,0,9.4,0,14.1,0c3.5,0,7-0.1,10.5-0.1c2.7,0,5.5-0.1,8.2-0.1c2.9,0,5.7,0.1,8.6,0.2c1.1,0,2.3,0.2,3.4,0.1
	c2.1-0.1,4.2-0.3,6.2-0.3c0.7,0,1.4,0.1,2.1,0.1c4.4,0,8.7-0.1,13.1,0c3.4,0,6.8,0.2,10.2,0.3c2.6,0,5.2-0.1,7.8-0.1
	c3.8,0,7.7,0.1,11.5,0c5,0,10-0.1,15-0.1c4.2,0,8.4,0.2,12.6,0.2c2.6,0,5.3-0.1,7.9-0.1c3.6,0,7.2,0,10.9,0c3.5,0,7-0.1,10.6,0
	c3.2,0.1,6.1,1,8.7,3.1c2.1,1.7,3.6,3.7,4.8,6c1,2,1.4,4.2,1.4,6.5c0.1,3.2,0,6.4-0.1,9.5c0,4.2,0,8.5,0,12.7c0,1.4,0,2.9,0,4.5
	c-2.3,0-4.7,0.1-7.1,0c-2.2-0.1-4.5,0.2-6.6-0.3c-0.6,0.1-1.2,0.3-1.9,0.3c-1.9,0-3.8-0.2-5.7-0.2c-2.3,0-4.5,0.2-6.8,0.2
	c-2.3,0-4.6-0.1-6.9-0.1c-0.9,0-1.8,0.2-2.7,0.2c-8.2,0-16.5,0-24.7,0c-8.7,0-17.3,0-26,0c-0.9,0-1.8-0.4-2.7-0.3
	c0.4,0,0.8,0.1,1.2,0.1c0,0,0,0.1,0,0.1C101.9,42.1,51,42.1,0,42.1z M101.3,4.7c0,2.5,0,4.8,0,7.2c0,0.2-0.3,0.6-0.5,0.6
	c-1,0-2.1-0.1-3.1-0.1c-1.4,0.1-2.8,0.3-4.3,0.3c-0.2,0-0.6-0.5-0.6-0.7c0-2.5,0-4.9,0-7.3c-1.4,0-2.8,0-4.1,0c0,6.8,0,13.5,0,20.3
	c1.4,0,2.8,0,4.2,0c0-3,0-5.9,0-9c2.8,0,5.4,0,8,0c0.2,0,0.5,0.4,0.5,0.6c0.1,2,0.1,4.1,0.1,6.1c0,0.7-0.1,1.4-0.2,2.1
	c1.5,0,2.9,0,4.3,0c0-6.8,0-13.5,0-20.3C104.2,4.7,102.8,4.7,101.3,4.7z M123.3,18.6c-0.1-1-0.1-1.8-0.3-2.6
	c-0.3-1.1-0.4-2.4-1.1-3.2c-2-2.1-4.4-3.5-7.4-2.6c-2,0.5-3.6,1.5-4.7,3.4c-1.2,2.1-1.2,4.2-0.8,6.4c0.3,1.7,1.2,3.2,2.5,4
	c1.9,1.1,4.2,1.6,6.6,1.1c2.2-0.5,4.3-2.1,4.7-4.3c-2.3-0.2-2.3-0.2-4.2,1.2c-1.3,1-2.9,0.9-4.3,0.3c-1.3-0.5-1.6-1.8-1.8-3
	c-0.1-0.2,0.4-0.8,0.6-0.8c2.6-0.1,5.1-0.1,7.7-0.1C121.6,18.4,122.4,18.5,123.3,18.6z M140.1,17.6c0.4,1.4,0.6,2.8,1.2,4
	c0.4,0.9,1,1.9,1.8,2.3c1.6,1,3.5,1.4,5.5,1.2c1.5-0.2,2.9-0.6,4.2-1.7c2.3-2.1,2.7-4.8,2.2-7.6c-0.8-4.5-4.1-6.2-8-6.1
	C143.1,10.1,140.4,13.5,140.1,17.6z M129.8,25c0-6.9,0-13.6,0-20.3c-1.3,0-2.5,0-3.7,0c0,6.8,0,13.6,0,20.3
	C127.3,25,128.5,25,129.8,25z M133.5,4.7c0,6.9,0,13.6,0,20.3c1.3,0,2.5,0,3.7,0c0-6.8,0-13.5,0-20.3C136,4.7,134.8,4.7,133.5,4.7z
	 M95.3,38c0-1.6,0-3,0-4.4c0-1,0.7-1.7,1.8-1.7c1,0.1,1.4,0.7,1.4,1.7c0,1.4,0,2.8,0,4.2c0.5,0,0.9,0,1.4,0c0-1.6,0-3.2,0-4.8
	c0-1-0.5-1.7-1.7-2c-1.3-0.3-2.2,0.3-2.8,0.8c-0.9-0.4-1.7-0.9-2.5-0.9c-0.8,0-1.5,0.6-2.2,0.9c0-1.5-1.2-0.4-1.5-0.6
	c0,2.1,0,4.2,0,6.5c0.7,0,1.1,0.1,1.6,0.1c0-1.5,0-2.9,0-4.3c0-1,0.9-1.8,1.8-1.7c1.1,0.1,1.4,0.8,1.3,1.7c0,1.3,0,2.6,0,4
	C94.3,37.9,94.7,37.9,95.3,38z M129.5,31.3c0,2.1,0,4.2,0,6.5c0.4,0,0.8,0.1,1.2,0.1c0.1,0,0.1-0.6,0.2-1c0-1.1,0-2.3,0.1-3.4
	c0.1-1,0.8-1.6,1.8-1.5c1,0.1,1.4,0.9,1.4,1.9c0,1.3,0,2.6,0,4c0.4,0,0.9,0.1,1.3,0.1c0-1.4,0-2.8,0-4.2c0-0.9,0.8-1.7,1.7-1.7
	c1,0,1.5,0.6,1.5,1.6c0,1.4,0,2.8,0,4.7c0.6-0.4,1.4-0.6,1.4-0.9c0.1-1.5,0-3.1-0.2-4.6c-0.1-0.5-0.5-1.1-1-1.4
	c-1.4-0.8-2.6-0.2-3.3,0.6c-1-0.4-1.7-0.8-2.5-0.8c-0.8,0-1.5,0.5-2.2,0.8C130.6,31.2,130.6,31.2,129.5,31.3z M121.3,33.5
	c0.7-0.4,1.3-0.5,1.8-0.9c0.7-0.6,1.9-0.9,2.6-0.3c0.3,0.2,0.6,0.7,0.5,1c0,0.2-0.5,0.5-0.9,0.6c-0.9,0.2-1.8,0.3-2.8,0.5
	c-1,0.2-1.5,0.9-1.4,1.8c0.1,0.6,0.7,1.3,1.3,1.6c1.2,0.6,2.5,0.3,3.4-0.3c0.8,0.2,1.3,0.4,1.9,0.5c0.2,0,0.4-0.2,0.7-0.4
	c-0.1-0.2-0.3-0.4-0.4-0.6c-0.2-0.3-0.5-0.6-0.5-0.9c-0.1-1,0-2.1,0-3.1c0-0.3,0-0.8-0.3-1c-1-0.9-2.2-1.2-3.4-0.9
	C122.7,31.3,121.5,31.6,121.3,33.5z M101.7,39.4c-0.1,0.1-0.2,0.2-0.3,0.3c0.3,0.2,0.5,0.7,0.8,0.7c1.3,0.2,2.2,0,2.6-1.2
	c1.1-2.6,2.1-5.3,3.2-7.9c-0.6,0-1.1,0-1.5,0c-0.6,1.7-1.2,3.4-1.9,5.3c-0.6-1.6-1.3-2.8-1.6-4.1c-0.3-1.2-0.9-1.5-2.1-1.2
	c0.8,1.9,1.7,3.8,2.5,5.7C104,38.6,103.4,39.5,101.7,39.4z M148.3,35.8c-0.1-0.1-0.2-0.2-0.2-0.3c-0.4,0.3-0.9,0.6-1.3,0.9
	c-0.8,0.7-1.7,0.7-2.5,0.4c-0.9-0.3-1.3-1-1.1-2c1.8,0,3.6,0,5.4,0c0.1-2.1-1.3-3.8-3.4-3.9c-1.2-0.1-3.1,1.4-3.3,2.6
	c-0.3,2.5,0.6,4.2,2.4,4.4C146.5,38.3,148,37.5,148.3,35.8z M113.2,37.8c0.9,0.1,1.7,0.3,1.5-1.2c-0.2-1.1-0.1-2.2,0-3.3
	c0.1-1,1.1-1.6,2.1-1.4c1,0.1,1.2,0.9,1.2,1.8c0,1.3,0,2.7,0,4.1c0.5,0,1,0.1,1.5,0.1c0-1.6,0-3.1,0-4.6c0-0.9-0.4-1.6-1.3-2
	c-1.4-0.7-2.6-0.1-3.7,1c-0.1-0.5-0.1-0.8-0.2-1.1c-0.5,0-0.9,0.1-1.2,0.1C113.2,33.5,113.2,35.6,113.2,37.8z M162.7,33.1
	c0.1-0.2,0.2-0.4,0.4-0.5c-0.4-0.4-0.8-0.8-1.2-1.1c-1.2-0.6-2.5-0.7-3.6,0c-0.5,0.3-1,1-1,1.4c0.1,0.6,0.6,1.2,1.2,1.5
	c0.8,0.4,1.7,0.5,2.6,0.8c0.4,0.1,0.7,0.5,0.9,0.8c0.1,0.1-0.1,0.6-0.4,0.8c-0.7,0.6-2.3,0.3-3-0.3c-0.4-0.4-1-0.6-1.7-1
	c0,0.6,0,0.7,0.1,0.8c0.8,2.1,3.9,2.1,5.4,1.2c0.5-0.3,1-1.1,1-1.7c0-0.5-0.7-1.1-1.3-1.4c-0.7-0.3-1.6-0.3-2.3-0.6
	c-0.5-0.2-0.9-0.7-1.3-1c0.5-0.3,1-0.7,1.6-0.8c0.4-0.1,0.8,0.2,1.2,0.3C161.8,32.6,162.2,32.9,162.7,33.1z M153.9,38.2
	c0.6-0.3,1.4-0.5,1.4-0.8c0.1-2,0.1-4.1,0.1-6.2c-0.7,0-1.1,0-1.5,0C153.9,33.5,153.9,35.7,153.9,38.2z M155.3,28.7
	c-1.6-0.2-1.6-0.2-1.3,1.1c0.5,0,0.9,0,1.4,0C155.3,29.4,155.3,29,155.3,28.7z M98.1,41.8c0,0.1,0,0.1,0,0.2c1.5,0,3,0,4.6,0
	c0-0.1,0-0.1,0-0.2C101.2,41.8,99.6,41.8,98.1,41.8z"/>
<path class="st0" d="M17.3,140.6c0.5-0.1,0.9-0.2,1.4-0.2c12.4,0,24.7,0,37.1,0c3.7,0,7.4-0.1,11-0.2c3,0,6,0.2,9,0.1
	c5.7,0,11.3-0.2,17-0.2c16.2,0,32.4,0,48.6,0c7.2,0,14.4,0,21.6,0c8.8,0,17.7,0,26.5,0c4.3,0,8.7,0,13,0.1c2.5,0,4.9,0.2,7.4,0.2
	c5.3,0,10.6-0.2,16-0.2c4.9,0,9.7,0.1,14.6,0.2c0.7,0,1.4,0.1,2.1,0.1c0,0.7-0.1,1.5-0.1,2.2c0,7.8-7,15-15.1,15
	c-29.2,0-58.4,0-87.6,0c-23.9,0-47.7,0-71.6,0c-16,0-32,0-48,0c-2.6,0-5.3,0-7.9-0.3c-2.8-0.3-5.1-1.7-7.1-3.5
	c-2.5-2.2-4.3-4.9-4.9-8.2c-0.3-1.7-0.4-3.4-0.6-5.3c1.9,0,3.6,0,5.3,0c3.9,0,7.8,0,11.6,0C16.8,140.5,17,140.6,17.3,140.6
	c-2.9,0-5.9,0-8.8,0c2,0.3,4,0.3,6.1,0.3C15.4,140.9,16.3,140.7,17.3,140.6z M29.4,140.9c0,0,0.1-0.1,0.1-0.1c-3.3,0-6.6,0-9.8,0
	c0,0,0,0.1,0,0.1C23,140.9,26.2,140.9,29.4,140.9z"/>
<path class="st0" d="M119.2,16.2c-2.2,0-4.3,0-6.5,0c-0.5-1,0.3-1.9,0.9-2.6c0.9-1,3.1-1.2,4.2-0.5C118.7,13.6,119.4,15,119.2,16.2z
	"/>
<path class="st0" d="M151.7,17.7c0.2,2-0.8,3.4-2.1,4.6c-1,0.9-3.9,0.3-4.6-1.1c-1.2-2.3-1.4-4.6-0.1-6.9c0.7-1.2,2.3-1.8,4-1.5
	c1.1,0.2,2.4,1.6,2.6,2.8C151.5,16.3,151.6,17,151.7,17.7z"/>
<path class="st0" d="M126,34.4c0.4,2.1-0.6,2.7-2.2,2.5c-0.5-0.1-0.9-0.6-1.3-0.9c0.4-0.4,0.7-0.9,1.2-1.1
	C124.3,34.6,125.1,34.6,126,34.4z"/>
<path class="st0" d="M143.1,34c0.2-1.3,1.1-2.1,2-2.1c1,0,1.8,0.9,1.9,2.1C145.7,34,144.4,34,143.1,34z"/>
<rect x="295.1" y="212.5" class="st0" width="30.6" height="30.6"/>
</svg>
