<?xml version="1.0" encoding="utf-8"?>
<!-- Generator: Adobe Illustrator 22.1.0, SVG Export Plug-In . SVG Version: 6.00 Build 0)  -->
<svg version="1.1" id="Layer_1" xmlns="http://www.w3.org/2000/svg" xmlns:xlink="http://www.w3.org/1999/xlink" x="0px" y="0px"
	 viewBox="0 0 200 200" style="enable-background:new 0 0 200 200;" xml:space="preserve">
<style type="text/css">
	.st0{fill:#0D3F00;}
	.st1{fill:#027F00;}
</style>
<g>
	<path class="st0" d="M40.5,14.6c-6.2,12.4-12.1,24.5-18.4,36.5c-0.8,1.5-4,1.7-6.1,2.5c-0.7-2.1-2.5-4.6-2-6.3
		c3.2-10.9,6.5-21.8,10.6-32.4C27.1,8.4,31.1,8.5,40.5,14.6z"/>
	<path class="st0" d="M150.5,165.7c5.5-12.1,10.4-22.9,15.5-34.2c3.1,0.9,7.7,1.4,10.9,3.7c1.7,1.2,2.6,6.6,1.4,8.4
		c-5,7.3-11.2,13.7-16.4,20.9C157.9,170,154.8,170.3,150.5,165.7z"/>
	<path class="st0" d="M182.6,150c4.8,1,11.1,2.4,17.4,3.7c-2.9,6.1-5.6,12.5-8.8,18.2c-5.5,9.7-11.5,19.1-18.5,27.8
		c-3.5-7.1-9.1-7.9-2.9-20.1C175.8,167.8,177.9,161.5,182.6,150z"/>
	<path class="st0" d="M1,31.2c1-8.8,1.6-15.1,2.4-21.4C3.8,6.3,15.6-0.6,18.1,1.3c0.8,0.6,1.5,2.5,1.2,3.4c-3,9-8.4,16.6-11.8,25.4
		c-0.8,2-0.9,4.5-2.6,6.1C3.2,34,1.5,31.8,1,31.2z"/>
	<path class="st1" d="M76.1,74.8c-0.5,2.3-1.8,4.5-2.8,6.7c-2.3-1.5-5.4-2.5-6.6-4.6C63.4,71,56.4,58.9,55.7,59
		c0.7,5.3,1.8,10.5,2.1,15.8c0.1,2.2-1.3,4.4-1.9,6.6c-2-1.3-4.6-2.3-5.7-4.1c-2.6-4.6-4.5-9.6-6.7-14.6c-3.4,3-3.9,6.3-4.4,11.1
		c-0.1,1.3-0.6,5.4-3.2,5.3c0-13.3-0.6-28.2-0.3-40.7c0-1.9,2.2-3.8,3.3-5.7c1.7,1.6,4.2,2.8,5,4.7c2,4.9,3.3,10,6.3,14.9
		c0.7-3.9,1.2-7.9,2.3-11.7c0.6-1.9,2.5-3.3,3.8-5c1.4,1.6,3.4,2.9,4.1,4.7c2.8,7.9,5.2,15.9,7.8,23.9c1.1,0.1,2.5,3.1,3.3,0.2
		c2.9-13,5.6-26.1,8.7-39.1c0.5-2.3,2.8-4.1,4.2-6.1c1.1,2.1,2.9,4.1,3.2,6.4c1.5,10.9,2.6,21.9,3.9,32.8c1,0,2.1,0.1,3.1,0.1
		c1.9-9.1,3.7-18.2,6-27.1c0.6-2.1,3.3-3.6,5-5.4c0.7,2.1,2,4.2,2,6.2c0.1,11.9-0.2,23.9-0.2,35.8c0,2.3,1.1,4.6,1.7,6.9
		c0.8,0.1,1.6,0.1,2.5,0.2c2.6-12.8,5.1-25.7,7.8-38.5c0.5-2.5,2.2-4.8,3.3-7.2c1.1,2.4,3.1,4.7,3.3,7.2c1.6,18.4,2.7,36.9,4.2,55.3
		c0.2,2.9,1.3,5.8,2.5,10.6c7.9-4.2,15.1-7.5,21.8-11.7c4.6-2.9,7.8-3.2,10.2,1.8c-7,11.3-14.1,22.2-20.7,33.4
		c-10,17-7.8,35.2-4.1,53.3c0.6,2.9,1.8,5.8,1.8,8.6c0,2.8-1.3,5.6-3.1,8.2c-11.8-19.4-16.1-39.6-11.7-60.4
		c-10.5,4.9-20.9,11.6-32.2,14.6c-15.3,4.1-25.1,9.9-47.1,7.7c-23.4-4.1-21.2-15.5-12.7-29.4c10.4-16.9,21.4-25,34-35.7
		c2.1-1.7,4.5-3.1,6.8-4.5C90,79.3,90,79.3,86.2,62.8c-1-4.1-2.1-8.2-3.1-12.3C82.3,47.4,77.9,66.6,76.1,74.8z M129.3,111
		c-12.9,2-25,3.9-37.2,5.8c5-11.3,16.1-10.7,20.1-11.4c4.1-0.7,8.1-2.2,12.1-3.4c-2.5-4.7-4.9-9.3-7.5-14c-0.2-0.4-1-0.4-0.3-0.2
		c-3.2,2.4-5.9,4.5-9.3,7.1c-2.3-6.5-1.6-14.4-10.1-11.2c-17.8,6.7-32.1,17-35.9,37.5c-1.6,8.5,1.6,13.7,9.6,17
		c7.1,2.9,13.7,1.5,20.3-0.4C107.7,133,120.8,127.5,129.3,111z"/>
</g>
</svg>
